<?xml version="1.0" encoding="us-ascii" standalone="no"?><svg xmlns="http://www.w3.org/2000/svg" xmlns:xlink="http://www.w3.org/1999/xlink" contentStyleType="text/css" height="1519px" preserveAspectRatio="none" style="width:936px;height:1519px;background:#FFFFFF;" version="1.1" viewBox="0 0 936 1519" width="936px" zoomAndPan="magnify"><defs/><g><rect fill="none" height="20.6982" style="stroke:none;stroke-width:1.0;" width="903.5" x="15" y="12.3145"/><rect fill="#F1F1F1" height="33.7988" rx="12.5" ry="12.5" style="stroke:#181818;stroke-width:0.5;" width="165" x="120" y="131.8115"/><text fill="#000000" font-family="Arial" font-size="12" lengthAdjust="spacing" textLength="145" x="130" y="153.0674">S&#233;lectionner un marchand</text><rect fill="#F1F1F1" height="33.7988" rx="12.5" ry="12.5" style="stroke:#181818;stroke-width:0.5;" width="111" x="147" y="360.8057"/><text fill="#000000" font-family="Arial" font-size="12" lengthAdjust="spacing" textLength="91" x="157" y="382.0615">Choisir une offre</text><rect fill="#F1F1F1" height="47.5977" rx="12.5" ry="12.5" style="stroke:#181818;stroke-width:0.5;" width="191" x="107" y="468.4033"/><text fill="#000000" font-family="Arial" font-size="12" lengthAdjust="spacing" textLength="171" x="117" y="489.6592">Saisir l'ID Client du b&#233;n&#233;ficiaire</text><text fill="#000000" font-family="Arial" font-size="12" lengthAdjust="spacing" textLength="49" x="117" y="503.458">et valider</text><rect fill="#F1F1F1" height="33.7988" rx="12.5" ry="12.5" style="stroke:#181818;stroke-width:0.5;" width="180" x="112.5" y="589.7998"/><text fill="#000000" font-family="Arial" font-size="12" lengthAdjust="spacing" textLength="160" x="122.5" y="611.0557">Choisir le mode de paiement</text><rect fill="#F1F1F1" height="47.5977" rx="12.5" ry="12.5" style="stroke:#181818;stroke-width:0.5;" width="171" x="21" y="755.1963"/><text fill="#000000" font-family="Arial" font-size="12" lengthAdjust="spacing" textLength="114" x="31" y="776.4521">Choisir l'op&#233;rateur et</text><text fill="#000000" font-family="Arial" font-size="12" lengthAdjust="spacing" textLength="151" x="31" y="790.251">saisir le num&#233;ro de compte</text><rect fill="#F1F1F1" height="33.7988" rx="12.5" ry="12.5" style="stroke:#181818;stroke-width:0.5;" width="118" x="143.5" y="924.3916"/><text fill="#000000" font-family="Arial" font-size="12" lengthAdjust="spacing" textLength="98" x="153.5" y="945.6475">Valider l'op&#233;ration</text><line style="stroke:#000000;stroke-width:1.5;" x1="15" x2="15" y1="12.3145" y2="1507.3049"/><ellipse cx="490.5" cy="48.0127" fill="#222222" rx="10" ry="10" style="stroke:#222222;stroke-width:1.0;"/><rect fill="#F1F1F1" height="33.7988" rx="12.5" ry="12.5" style="stroke:#181818;stroke-width:0.5;" width="233" x="374" y="78.0127"/><text fill="#000000" font-family="Arial" font-size="12" lengthAdjust="spacing" textLength="213" x="384" y="99.2686">Afficher Interface 1: Choix du marchand</text><rect fill="#F1F1F1" height="33.7988" rx="12.5" ry="12.5" style="stroke:#181818;stroke-width:0.5;" width="232" x="374.5" y="185.6104"/><text fill="#000000" font-family="Arial" font-size="12" lengthAdjust="spacing" textLength="212" x="384.5" y="206.8662">Appeler l'URL configur&#233;e du marchand</text><rect fill="#F1F1F1" height="33.7988" rx="12.5" ry="12.5" style="stroke:#181818;stroke-width:0.5;" width="235" x="373" y="307.0068"/><text fill="#000000" font-family="Arial" font-size="12" lengthAdjust="spacing" textLength="215" x="383" y="328.2627">Afficher Interface 2: Offres du marchand</text><rect fill="#F1F1F1" height="33.7988" rx="12.5" ry="12.5" style="stroke:#181818;stroke-width:0.5;" width="211" x="385" y="414.6045"/><text fill="#000000" font-family="Arial" font-size="12" lengthAdjust="spacing" textLength="191" x="395" y="435.8604">Afficher Interface 3: Saisie ID Client</text><rect fill="#F1F1F1" height="33.7988" rx="12.5" ry="12.5" style="stroke:#181818;stroke-width:0.5;" width="228" x="376.5" y="536.001"/><text fill="#000000" font-family="Arial" font-size="12" lengthAdjust="spacing" textLength="208" x="386.5" y="557.2568">Afficher Interface 4: Mode de paiement</text><polygon fill="#F1F1F1" points="457.5,643.5986,523.5,643.5986,535.5,655.5986,523.5,667.5986,457.5,667.5986,445.5,655.5986,457.5,643.5986" style="stroke:#181818;stroke-width:0.5;"/><text fill="#000000" font-family="Arial" font-size="11" lengthAdjust="spacing" textLength="66" x="457.5" y="659.592">Mode choisi ?</text><text fill="#000000" font-family="Arial" font-size="11" lengthAdjust="spacing" textLength="65" x="380.5" y="653.2676">Mobile Money</text><text fill="#000000" font-family="Arial" font-size="11" lengthAdjust="spacing" textLength="60" x="535.5" y="653.2676">Wallet Direct</text><rect fill="#F1F1F1" height="33.7988" rx="12.5" ry="12.5" style="stroke:#181818;stroke-width:0.5;" width="169" x="310" y="687.5986"/><text fill="#000000" font-family="Arial" font-size="12" lengthAdjust="spacing" textLength="149" x="320" y="708.8545">Afficher s&#233;lection op&#233;rateur</text><rect fill="#F1F1F1" height="47.5977" rx="12.5" ry="12.5" style="stroke:#181818;stroke-width:0.5;" width="171" x="309" y="822.7939"/><text fill="#000000" font-family="Arial" font-size="12" lengthAdjust="spacing" textLength="151" x="319" y="844.0498">D&#233;finir le paiement selon la</text><text fill="#000000" font-family="Arial" font-size="12" lengthAdjust="spacing" textLength="114" x="319" y="857.8486">devise de l'op&#233;rateur</text><rect fill="#F1F1F1" height="47.5977" rx="12.5" ry="12.5" style="stroke:#181818;stroke-width:0.5;" width="173" x="500" y="687.5986"/><text fill="#000000" font-family="Arial" font-size="12" lengthAdjust="spacing" textLength="134" x="510" y="708.8545">Pr&#233;parer le paiement via</text><text fill="#000000" font-family="Arial" font-size="12" lengthAdjust="spacing" textLength="153" x="510" y="722.6533">le Wallet (Devise Marchand)</text><polygon fill="#F1F1F1" points="490.5,880.3916,502.5,892.3916,490.5,904.3916,478.5,892.3916,490.5,880.3916" style="stroke:#181818;stroke-width:0.5;"/><rect fill="#F1F1F1" height="33.7988" rx="12.5" ry="12.5" style="stroke:#181818;stroke-width:0.5;" width="187" x="397" y="978.1904"/><text fill="#000000" font-family="Arial" font-size="12" lengthAdjust="spacing" textLength="167" x="407" y="999.4463">Action 1: Initialiser le paiement</text><polygon fill="#F1F1F1" points="407,1085.7881,574,1085.7881,586,1097.7881,574,1109.7881,407,1109.7881,395,1097.7881,407,1085.7881" style="stroke:#181818;stroke-width:0.5;"/><text fill="#000000" font-family="Arial" font-size="11" lengthAdjust="spacing" textLength="16" x="494.5" y="1120.106">Oui</text><text fill="#000000" font-family="Arial" font-size="11" lengthAdjust="spacing" textLength="167" x="407" y="1101.7815">Le choix initial &#233;tait Mobile Money ?</text><text fill="#000000" font-family="Arial" font-size="11" lengthAdjust="spacing" textLength="88" x="307" y="1095.457">Non / Wallet Direct</text><polygon fill="#F1F1F1" points="490.5,1266.1096,502.5,1278.1096,490.5,1290.1096,478.5,1278.1096,490.5,1266.1096" style="stroke:#181818;stroke-width:0.5;"/><rect fill="#F1F1F1" height="33.7988" rx="12.5" ry="12.5" style="stroke:#181818;stroke-width:0.5;" width="197" x="392" y="1431.5061"/><text fill="#000000" font-family="Arial" font-size="12" lengthAdjust="spacing" textLength="177" x="402" y="1452.762">Afficher l'&#233;cran de succ&#232;s / Re&#231;u</text><ellipse cx="490.5" cy="1496.3049" fill="none" rx="11" ry="11" style="stroke:#222222;stroke-width:1.0;"/><ellipse cx="490.5" cy="1496.3049" fill="#222222" rx="6" ry="6" style="stroke:#222222;stroke-width:1.0;"/><line style="stroke:#000000;stroke-width:1.5;" x1="302" x2="302" y1="12.3145" y2="1507.3049"/><rect fill="#F1F1F1" height="47.5977" rx="12.5" ry="12.5" style="stroke:#181818;stroke-width:0.5;" width="230" x="683" y="239.4092"/><text fill="#000000" font-family="Arial" font-size="12" lengthAdjust="spacing" textLength="148" x="693" y="260.665">Renvoyer la liste des offres</text><text fill="#000000" font-family="Arial" font-size="12" lengthAdjust="spacing" textLength="210" x="693" y="274.4639">(ID, Nom, Montant, Devise, Lien photo)</text><rect fill="#F1F1F1" height="33.7988" rx="12.5" ry="12.5" style="stroke:#181818;stroke-width:0.5;" width="185" x="705.5" y="1031.9893"/><text fill="#000000" font-family="Arial" font-size="12" lengthAdjust="spacing" textLength="165" x="715.5" y="1053.2451">Cr&#233;er la transaction en attente</text><rect fill="#F1F1F1" height="47.5977" rx="12.5" ry="12.5" style="stroke:#181818;stroke-width:0.5;" width="181" x="707.5" y="1134.1125"/><text fill="#000000" font-family="Arial" font-size="12" lengthAdjust="spacing" textLength="161" x="717.5" y="1155.3684">Demander le d&#233;p&#244;t (Cash-in)</text><text fill="#000000" font-family="Arial" font-size="12" lengthAdjust="spacing" textLength="125" x="717.5" y="1169.1672">Mobile Money -&gt; Wallet</text><rect fill="#F1F1F1" height="33.7988" rx="12.5" ry="12.5" style="stroke:#181818;stroke-width:0.5;" width="155" x="720.5" y="1212.3108"/><text fill="#000000" font-family="Arial" font-size="12" lengthAdjust="spacing" textLength="135" x="730.5" y="1233.5667">V&#233;rifier le statut du d&#233;p&#244;t</text><rect fill="#F1F1F1" height="47.5977" rx="12.5" ry="12.5" style="stroke:#181818;stroke-width:0.5;" width="192" x="702" y="1310.1096"/><text fill="#000000" font-family="Arial" font-size="12" lengthAdjust="spacing" textLength="172" x="712" y="1331.3655">Action 2: Confirmer le paiement</text><text fill="#000000" font-family="Arial" font-size="12" lengthAdjust="spacing" textLength="65" x="712" y="1345.1643">via le Wallet</text><rect fill="#F1F1F1" height="33.7988" rx="12.5" ry="12.5" style="stroke:#181818;stroke-width:0.5;" width="191" x="702.5" y="1377.7073"/><text fill="#000000" font-family="Arial" font-size="12" lengthAdjust="spacing" textLength="171" x="712.5" y="1398.9631">Notifier le marchand du succ&#232;s</text><line style="stroke:#000000;stroke-width:1.5;" x1="677" x2="677" y1="12.3145" y2="1507.3049"/><line style="stroke:#000000;stroke-width:1.5;" x1="917" x2="917" y1="12.3145" y2="1507.3049"/><line style="stroke:#181818;stroke-width:1.0;" x1="490.5" x2="490.5" y1="58.0127" y2="78.0127"/><polygon fill="#181818" points="486.5,68.0127,490.5,78.0127,494.5,68.0127,490.5,72.0127" style="stroke:#181818;stroke-width:1.0;"/><line style="stroke:#181818;stroke-width:1.0;" x1="445.5" x2="394.5" y1="655.5986" y2="655.5986"/><line style="stroke:#181818;stroke-width:1.0;" x1="394.5" x2="394.5" y1="655.5986" y2="687.5986"/><polygon fill="#181818" points="390.5,677.5986,394.5,687.5986,398.5,677.5986,394.5,681.5986" style="stroke:#181818;stroke-width:1.0;"/><line style="stroke:#181818;stroke-width:1.0;" x1="535.5" x2="586.5" y1="655.5986" y2="655.5986"/><line style="stroke:#181818;stroke-width:1.0;" x1="586.5" x2="586.5" y1="655.5986" y2="687.5986"/><polygon fill="#181818" points="582.5,677.5986,586.5,687.5986,590.5,677.5986,586.5,681.5986" style="stroke:#181818;stroke-width:1.0;"/><line style="stroke:#181818;stroke-width:1.0;" x1="394.5" x2="394.5" y1="870.3916" y2="892.3916"/><line style="stroke:#181818;stroke-width:1.0;" x1="394.5" x2="478.5" y1="892.3916" y2="892.3916"/><polygon fill="#181818" points="468.5,888.3916,478.5,892.3916,468.5,896.3916,472.5,892.3916" style="stroke:#181818;stroke-width:1.0;"/><line style="stroke:#181818;stroke-width:1.0;" x1="586.5" x2="586.5" y1="735.1963" y2="892.3916"/><line style="stroke:#181818;stroke-width:1.0;" x1="586.5" x2="502.5" y1="892.3916" y2="892.3916"/><polygon fill="#181818" points="512.5,888.3916,502.5,892.3916,512.5,896.3916,508.5,892.3916" style="stroke:#181818;stroke-width:1.0;"/><line style="stroke:#181818;stroke-width:1.0;" x1="395" x2="383" y1="1097.7881" y2="1097.7881"/><polygon fill="#181818" points="379,1182.3108,383,1192.3108,387,1182.3108,383,1186.3108" style="stroke:#181818;stroke-width:1.0;"/><line style="stroke:#181818;stroke-width:1.0;" x1="383" x2="383" y1="1097.7881" y2="1278.1096"/><line style="stroke:#181818;stroke-width:1.0;" x1="383" x2="478.5" y1="1278.1096" y2="1278.1096"/><polygon fill="#181818" points="468.5,1274.1096,478.5,1278.1096,468.5,1282.1096,472.5,1278.1096" style="stroke:#181818;stroke-width:1.0;"/><line style="stroke:#181818;stroke-width:1.0;" x1="490.5" x2="490.5" y1="1465.3049" y2="1485.3049"/><polygon fill="#181818" points="486.5,1475.3049,490.5,1485.3049,494.5,1475.3049,490.5,1479.3049" style="stroke:#181818;stroke-width:1.0;"/><line style="stroke:#181818;stroke-width:1.0;" x1="798" x2="798" y1="1181.7102" y2="1212.3108"/><polygon fill="#181818" points="794,1202.3108,798,1212.3108,802,1202.3108,798,1206.3108" style="stroke:#181818;stroke-width:1.0;"/><line style="stroke:#181818;stroke-width:1.0;" x1="798" x2="798" y1="1357.7073" y2="1377.7073"/><polygon fill="#181818" points="794,1367.7073,798,1377.7073,802,1367.7073,798,1371.7073" style="stroke:#181818;stroke-width:1.0;"/><line style="stroke:#181818;stroke-width:1.0;" x1="490.5" x2="490.5" y1="111.8115" y2="116.8115"/><line style="stroke:#181818;stroke-width:1.0;" x1="490.5" x2="202.5" y1="116.8115" y2="116.8115"/><line style="stroke:#181818;stroke-width:1.0;" x1="202.5" x2="202.5" y1="116.8115" y2="131.8115"/><polygon fill="#181818" points="198.5,121.8115,202.5,131.8115,206.5,121.8115,202.5,125.8115" style="stroke:#181818;stroke-width:1.0;"/><line style="stroke:#181818;stroke-width:1.0;" x1="202.5" x2="202.5" y1="165.6104" y2="170.6104"/><line style="stroke:#181818;stroke-width:1.0;" x1="202.5" x2="490.5" y1="170.6104" y2="170.6104"/><line style="stroke:#181818;stroke-width:1.0;" x1="490.5" x2="490.5" y1="170.6104" y2="185.6104"/><polygon fill="#181818" points="486.5,175.6104,490.5,185.6104,494.5,175.6104,490.5,179.6104" style="stroke:#181818;stroke-width:1.0;"/><line style="stroke:#181818;stroke-width:1.0;" x1="490.5" x2="490.5" y1="219.4092" y2="224.4092"/><line style="stroke:#181818;stroke-width:1.0;" x1="490.5" x2="798" y1="224.4092" y2="224.4092"/><line style="stroke:#181818;stroke-width:1.0;" x1="798" x2="798" y1="224.4092" y2="239.4092"/><polygon fill="#181818" points="794,229.4092,798,239.4092,802,229.4092,798,233.4092" style="stroke:#181818;stroke-width:1.0;"/><line style="stroke:#181818;stroke-width:1.0;" x1="798" x2="798" y1="287.0068" y2="292.0068"/><line style="stroke:#181818;stroke-width:1.0;" x1="798" x2="490.5" y1="292.0068" y2="292.0068"/><line style="stroke:#181818;stroke-width:1.0;" x1="490.5" x2="490.5" y1="292.0068" y2="307.0068"/><polygon fill="#181818" points="486.5,297.0068,490.5,307.0068,494.5,297.0068,490.5,301.0068" style="stroke:#181818;stroke-width:1.0;"/><line style="stroke:#181818;stroke-width:1.0;" x1="490.5" x2="490.5" y1="340.8057" y2="345.8057"/><line style="stroke:#181818;stroke-width:1.0;" x1="490.5" x2="202.5" y1="345.8057" y2="345.8057"/><line style="stroke:#181818;stroke-width:1.0;" x1="202.5" x2="202.5" y1="345.8057" y2="360.8057"/><polygon fill="#181818" points="198.5,350.8057,202.5,360.8057,206.5,350.8057,202.5,354.8057" style="stroke:#181818;stroke-width:1.0;"/><line style="stroke:#181818;stroke-width:1.0;" x1="202.5" x2="202.5" y1="394.6045" y2="399.6045"/><line style="stroke:#181818;stroke-width:1.0;" x1="202.5" x2="490.5" y1="399.6045" y2="399.6045"/><line style="stroke:#181818;stroke-width:1.0;" x1="490.5" x2="490.5" y1="399.6045" y2="414.6045"/><polygon fill="#181818" points="486.5,404.6045,490.5,414.6045,494.5,404.6045,490.5,408.6045" style="stroke:#181818;stroke-width:1.0;"/><line style="stroke:#181818;stroke-width:1.0;" x1="490.5" x2="490.5" y1="448.4033" y2="453.4033"/><line style="stroke:#181818;stroke-width:1.0;" x1="490.5" x2="202.5" y1="453.4033" y2="453.4033"/><line style="stroke:#181818;stroke-width:1.0;" x1="202.5" x2="202.5" y1="453.4033" y2="468.4033"/><polygon fill="#181818" points="198.5,458.4033,202.5,468.4033,206.5,458.4033,202.5,462.4033" style="stroke:#181818;stroke-width:1.0;"/><line style="stroke:#181818;stroke-width:1.0;" x1="202.5" x2="202.5" y1="516.001" y2="521.001"/><line style="stroke:#181818;stroke-width:1.0;" x1="202.5" x2="490.5" y1="521.001" y2="521.001"/><line style="stroke:#181818;stroke-width:1.0;" x1="490.5" x2="490.5" y1="521.001" y2="536.001"/><polygon fill="#181818" points="486.5,526.001,490.5,536.001,494.5,526.001,490.5,530.001" style="stroke:#181818;stroke-width:1.0;"/><line style="stroke:#181818;stroke-width:1.0;" x1="490.5" x2="490.5" y1="569.7998" y2="574.7998"/><line style="stroke:#181818;stroke-width:1.0;" x1="490.5" x2="202.5" y1="574.7998" y2="574.7998"/><line style="stroke:#181818;stroke-width:1.0;" x1="202.5" x2="202.5" y1="574.7998" y2="589.7998"/><polygon fill="#181818" points="198.5,579.7998,202.5,589.7998,206.5,579.7998,202.5,583.7998" style="stroke:#181818;stroke-width:1.0;"/><line style="stroke:#181818;stroke-width:1.0;" x1="394.5" x2="394.5" y1="721.3975" y2="738.8975"/><line style="stroke:#181818;stroke-width:1.0;" x1="394.5" x2="106.5" y1="738.8975" y2="738.8975"/><line style="stroke:#181818;stroke-width:1.0;" x1="106.5" x2="106.5" y1="738.8975" y2="755.1963"/><polygon fill="#181818" points="102.5,745.1963,106.5,755.1963,110.5,745.1963,106.5,749.1963" style="stroke:#181818;stroke-width:1.0;"/><line style="stroke:#181818;stroke-width:1.0;" x1="106.5" x2="106.5" y1="802.7939" y2="807.7939"/><line style="stroke:#181818;stroke-width:1.0;" x1="106.5" x2="394.5" y1="807.7939" y2="807.7939"/><line style="stroke:#181818;stroke-width:1.0;" x1="394.5" x2="394.5" y1="807.7939" y2="822.7939"/><polygon fill="#181818" points="390.5,812.7939,394.5,822.7939,398.5,812.7939,394.5,816.7939" style="stroke:#181818;stroke-width:1.0;"/><line style="stroke:#181818;stroke-width:1.0;" x1="202.5" x2="202.5" y1="623.5986" y2="628.5986"/><line style="stroke:#181818;stroke-width:1.0;" x1="202.5" x2="490.5" y1="628.5986" y2="628.5986"/><line style="stroke:#181818;stroke-width:1.0;" x1="490.5" x2="490.5" y1="628.5986" y2="643.5986"/><polygon fill="#181818" points="486.5,633.5986,490.5,643.5986,494.5,633.5986,490.5,637.5986" style="stroke:#181818;stroke-width:1.0;"/><line style="stroke:#181818;stroke-width:1.0;" x1="490.5" x2="490.5" y1="904.3916" y2="909.3916"/><line style="stroke:#181818;stroke-width:1.0;" x1="490.5" x2="202.5" y1="909.3916" y2="909.3916"/><line style="stroke:#181818;stroke-width:1.0;" x1="202.5" x2="202.5" y1="909.3916" y2="924.3916"/><polygon fill="#181818" points="198.5,914.3916,202.5,924.3916,206.5,914.3916,202.5,918.3916" style="stroke:#181818;stroke-width:1.0;"/><line style="stroke:#181818;stroke-width:1.0;" x1="202.5" x2="202.5" y1="958.1904" y2="963.1904"/><line style="stroke:#181818;stroke-width:1.0;" x1="202.5" x2="490.5" y1="963.1904" y2="963.1904"/><line style="stroke:#181818;stroke-width:1.0;" x1="490.5" x2="490.5" y1="963.1904" y2="978.1904"/><polygon fill="#181818" points="486.5,968.1904,490.5,978.1904,494.5,968.1904,490.5,972.1904" style="stroke:#181818;stroke-width:1.0;"/><line style="stroke:#181818;stroke-width:1.0;" x1="490.5" x2="490.5" y1="1011.9893" y2="1016.9893"/><line style="stroke:#181818;stroke-width:1.0;" x1="490.5" x2="798" y1="1016.9893" y2="1016.9893"/><line style="stroke:#181818;stroke-width:1.0;" x1="798" x2="798" y1="1016.9893" y2="1031.9893"/><polygon fill="#181818" points="794,1021.9893,798,1031.9893,802,1021.9893,798,1025.9893" style="stroke:#181818;stroke-width:1.0;"/><line style="stroke:#181818;stroke-width:1.0;" x1="490.5" x2="490.5" y1="1109.7881" y2="1121.9503"/><line style="stroke:#181818;stroke-width:1.0;" x1="490.5" x2="798" y1="1121.9503" y2="1121.9503"/><line style="stroke:#181818;stroke-width:1.0;" x1="798" x2="798" y1="1121.9503" y2="1134.1125"/><polygon fill="#181818" points="794,1124.1125,798,1134.1125,802,1124.1125,798,1128.1125" style="stroke:#181818;stroke-width:1.0;"/><line style="stroke:#181818;stroke-width:1.0;" x1="798" x2="798" y1="1246.1096" y2="1253.9474"/><line style="stroke:#181818;stroke-width:1.0;" x1="798" x2="490.5" y1="1253.9474" y2="1253.9474"/><line style="stroke:#181818;stroke-width:1.0;" x1="490.5" x2="490.5" y1="1253.9474" y2="1266.1096"/><polygon fill="#181818" points="486.5,1256.1096,490.5,1266.1096,494.5,1256.1096,490.5,1260.1096" style="stroke:#181818;stroke-width:1.0;"/><line style="stroke:#181818;stroke-width:1.0;" x1="798" x2="798" y1="1065.7881" y2="1070.7881"/><line style="stroke:#181818;stroke-width:1.0;" x1="798" x2="490.5" y1="1070.7881" y2="1070.7881"/><line style="stroke:#181818;stroke-width:1.0;" x1="490.5" x2="490.5" y1="1070.7881" y2="1085.7881"/><polygon fill="#181818" points="486.5,1075.7881,490.5,1085.7881,494.5,1075.7881,490.5,1079.7881" style="stroke:#181818;stroke-width:1.0;"/><line style="stroke:#181818;stroke-width:1.0;" x1="490.5" x2="490.5" y1="1290.1096" y2="1295.1096"/><line style="stroke:#181818;stroke-width:1.0;" x1="490.5" x2="798" y1="1295.1096" y2="1295.1096"/><line style="stroke:#181818;stroke-width:1.0;" x1="798" x2="798" y1="1295.1096" y2="1310.1096"/><polygon fill="#181818" points="794,1300.1096,798,1310.1096,802,1300.1096,798,1304.1096" style="stroke:#181818;stroke-width:1.0;"/><line style="stroke:#181818;stroke-width:1.0;" x1="798" x2="798" y1="1411.5061" y2="1416.5061"/><line style="stroke:#181818;stroke-width:1.0;" x1="798" x2="490.5" y1="1416.5061" y2="1416.5061"/><line style="stroke:#181818;stroke-width:1.0;" x1="490.5" x2="490.5" y1="1416.5061" y2="1431.5061"/><polygon fill="#181818" points="486.5,1421.5061,490.5,1431.5061,494.5,1421.5061,490.5,1425.5061" style="stroke:#181818;stroke-width:1.0;"/><text fill="#000000" font-family="Arial" font-size="18" lengthAdjust="spacing" textLength="80" x="118.5" y="29.1982">Utilisateur</text><text fill="#000000" font-family="Arial" font-size="18" lengthAdjust="spacing" textLength="179" x="400" y="29.1982">Application Mobile (UI)</text><text fill="#000000" font-family="Arial" font-size="18" lengthAdjust="spacing" textLength="154" x="720" y="29.1982">Serveur / Back-end</text><!--SRC=[bLJBRjj03BphAtYp3JW8-ZZ9G0lNHW43YLCaI7BnXP6eciXgLzXTkGdW_sbrxn_enygLP3jExAIvxfB3uGn9Ty-wG8ivB56dlonxJneoL8uYj_sRKeQbyj-DzdFC2SQMKKNH-jgpOeUUIhkErkEYK9oWPwFXtDon8kXVpmRoSqLs9J5m2jymkJyXdQwZL-ATH-kZU9nbd2p9manxiXac11zYc2mDFq1QGeus2QH7pud4LtMbA0cuMh9BlHTwj6eiFwGaGVMkByyWCJhZdwMjAtfUxL0xyINfbNaCwGZ2nKiMEJ1PPiajT7ys7SBSv4EfgJrgFnHHL-ne26SiYXTBuytW3NulzVWOmqLJuNL1WcQEWnJKCdfteKynNA5W4CocC552sH_G7PigghUD2RJkwahNbI0oigM59WyhL9oIVJUBpx74f45PA90fFyXYqwmWvGU2ZnRa3FeDUj80mDS1-ALOq- -Yn3Xw74G0EsPkEsXWYhgo3OMHXEnJafGjgTuk4CWljCCDMLtcycC2tyJaXQS6w2XT0Pq6MNMRlMaH72a9LRZGQJDW0UzfrL54ijpGlqMbn8gfU9BufgqVCkkoxxIFjsA1aeSklj-EBPntmoOpA_FFsGiRRbgFTxMbWpSCRvMK7Pzfzd9XfCuUbwExDmbRscoUjoYIja3Y7OPpvkbDtyzQrn-0syfGLnxPmrFhTmDnKN8Gx22NO0lb8anBFHL9wxyYsmJTyeJrOA7tC4- -TC86i-CR4OepRbFb2lgosQ0EPEFSN3euXMV-RKmug4-dh5oBIRXgDj_NTQ75PDXwF8hYkV5R7fkp4fYuCadgF-u_5rVrwYeHGy88Tfd2wvBgt-L8Zhmf_W40]--></g></svg>